# xmcd CD database file
#
# Track frame offsets:
#	150
#	33227
#	52620
#	68867
#	90427
#	103657
#	119112
#
# Disc length: 1762 seconds
#
# Revision: 0
# Processed by: cddbd v1.5.2PL0 Copyright (c) Steve Scherf et al.
# Submitted via: CDex 1.51
#
DISCID=5306e007
DTITLE=The Jazz Exponents - The Jazz Exponents
DYEAR=1964
DGENRE=Jazz
TTITLE0=Love Letters
TTITLE1=Doodlin'
TTITLE2=Minor's Holiday
TTITLE3=Night in Tunisia
TTITLE4=Button up Your Overcoat
TTITLE5=Bob 'N' Weave
TTITLE6=Preacher
EXTD=YEAR: 1964
EXTT0=
EXTT1=
EXTT2=
EXTT3=
EXTT4=
EXTT5=
EXTT6=
PLAYORDER=
